<?xml version="1.0" standalone="no"?>
<svg xmlns:xlink="http://www.w3.org/1999/xlink" id="wave" style="transform:rotate(180deg); transition: 0.3s" viewBox="0 0 1440 490" version="1.1" xmlns="http://www.w3.org/2000/svg"><defs><linearGradient id="sw-gradient-0" x1="0" x2="0" y1="1" y2="0"><stop stop-color="rgba(238, 230, 240, 1)" offset="0%"/><stop stop-color="rgba(238, 230, 240, 1)" offset="100%"/></linearGradient></defs><path style="transform:translate(0, 0px); opacity:1" fill="url(#sw-gradient-0)" d="M0,245L48,245C96,245,192,245,288,277.7C384,310,480,376,576,392C672,408,768,376,864,302.2C960,229,1056,114,1152,106.2C1248,98,1344,196,1440,253.2C1536,310,1632,327,1728,310.3C1824,294,1920,245,2016,236.8C2112,229,2208,261,2304,253.2C2400,245,2496,196,2592,147C2688,98,2784,49,2880,32.7C2976,16,3072,33,3168,106.2C3264,180,3360,310,3456,343C3552,376,3648,310,3744,253.2C3840,196,3936,147,4032,171.5C4128,196,4224,294,4320,326.7C4416,359,4512,327,4608,294C4704,261,4800,229,4896,179.7C4992,131,5088,65,5184,49C5280,33,5376,65,5472,65.3C5568,65,5664,33,5760,24.5C5856,16,5952,33,6048,73.5C6144,114,6240,180,6336,228.7C6432,278,6528,310,6624,326.7C6720,343,6816,343,6864,343L6912,343L6912,490L6864,490C6816,490,6720,490,6624,490C6528,490,6432,490,6336,490C6240,490,6144,490,6048,490C5952,490,5856,490,5760,490C5664,490,5568,490,5472,490C5376,490,5280,490,5184,490C5088,490,4992,490,4896,490C4800,490,4704,490,4608,490C4512,490,4416,490,4320,490C4224,490,4128,490,4032,490C3936,490,3840,490,3744,490C3648,490,3552,490,3456,490C3360,490,3264,490,3168,490C3072,490,2976,490,2880,490C2784,490,2688,490,2592,490C2496,490,2400,490,2304,490C2208,490,2112,490,2016,490C1920,490,1824,490,1728,490C1632,490,1536,490,1440,490C1344,490,1248,490,1152,490C1056,490,960,490,864,490C768,490,672,490,576,490C480,490,384,490,288,490C192,490,96,490,48,490L0,490Z"/></svg>