<?xml version="1.0" standalone="no"?>
<svg xmlns:xlink="http://www.w3.org/1999/xlink" id="wave" style="transform:rotate(180deg); transition: 0.3s" viewBox="0 0 1440 100" version="1.1" xmlns="http://www.w3.org/2000/svg"><defs><linearGradient id="sw-gradient-0" x1="0" x2="0" y1="1" y2="0"><stop stop-color="rgba(255, 232, 180, 1)" offset="0%"/><stop stop-color="rgba(255, 232, 180, 1)" offset="100%"/></linearGradient></defs><path style="transform:translate(0, 0px); opacity:1" fill="url(#sw-gradient-0)" d="M0,40L60,33.3C120,27,240,13,360,21.7C480,30,600,60,720,63.3C840,67,960,43,1080,30C1200,17,1320,13,1440,23.3C1560,33,1680,57,1800,56.7C1920,57,2040,33,2160,28.3C2280,23,2400,37,2520,43.3C2640,50,2760,50,2880,50C3000,50,3120,50,3240,56.7C3360,63,3480,77,3600,76.7C3720,77,3840,63,3960,50C4080,37,4200,23,4320,25C4440,27,4560,43,4680,45C4800,47,4920,33,5040,35C5160,37,5280,53,5400,61.7C5520,70,5640,70,5760,61.7C5880,53,6000,37,6120,25C6240,13,6360,7,6480,15C6600,23,6720,47,6840,50C6960,53,7080,37,7200,25C7320,13,7440,7,7560,10C7680,13,7800,27,7920,41.7C8040,57,8160,73,8280,71.7C8400,70,8520,50,8580,40L8640,30L8640,100L8580,100C8520,100,8400,100,8280,100C8160,100,8040,100,7920,100C7800,100,7680,100,7560,100C7440,100,7320,100,7200,100C7080,100,6960,100,6840,100C6720,100,6600,100,6480,100C6360,100,6240,100,6120,100C6000,100,5880,100,5760,100C5640,100,5520,100,5400,100C5280,100,5160,100,5040,100C4920,100,4800,100,4680,100C4560,100,4440,100,4320,100C4200,100,4080,100,3960,100C3840,100,3720,100,3600,100C3480,100,3360,100,3240,100C3120,100,3000,100,2880,100C2760,100,2640,100,2520,100C2400,100,2280,100,2160,100C2040,100,1920,100,1800,100C1680,100,1560,100,1440,100C1320,100,1200,100,1080,100C960,100,840,100,720,100C600,100,480,100,360,100C240,100,120,100,60,100L0,100Z"/></svg>